# Blender 4.0.2
# www.blender.org
o Cube.002
v -0.977633 -0.977633 -0.036347
v -0.977633 0.977633 -0.036347
v -1.087114 -1.087114 -0.137921
v -1.087114 1.087114 -0.137921
v 0.977633 -0.977633 -0.036347
v 0.977633 0.977633 -0.036347
v 1.087114 -1.087114 -0.137921
v 1.087114 1.087114 -0.137921
v -1.087114 -1.087114 -0.041289
v -1.087114 1.087114 -0.041289
v 1.087114 1.087114 -0.041289
v 1.087114 -1.087114 -0.041289
v -1.087114 -1.087114 0.079502
v -1.087114 1.087114 0.079502
v 1.087114 1.087114 0.079502
v 1.087114 -1.087114 0.079502
v -0.977633 -0.977633 0.084443
v -0.977633 0.977633 0.084443
v 0.977633 0.977633 0.084443
v 0.977633 -0.977633 0.084443
v -1.087114 -1.087114 -0.137921
v -1.087114 1.087114 -0.137921
v 1.087114 -1.087114 -0.137921
v 1.087114 1.087114 -0.137921
v -1.087114 -1.087114 -0.041289
v -1.087114 1.087114 -0.041289
v 1.087114 1.087114 -0.041289
v 1.087114 -1.087114 -0.041289
v -1.087114 -1.087114 0.079502
v -1.087114 1.087114 0.079502
v 1.087114 1.087114 0.079502
v 1.087114 -1.087114 0.079502
vn -1.0000 -0.0000 -0.0000
vn -0.0000 -0.0000 -1.0000
vn 1.0000 -0.0000 -0.0000
vn -0.0000 -0.0000 1.0000
vn -0.0000 -1.0000 -0.0000
vn -0.0000 1.0000 -0.0000
vn -0.0451 -0.0000 0.9990
vn 0.0451 -0.0000 0.9990
vn -0.0000 -0.0451 0.9990
vn -0.0000 0.0451 0.9990
vt 0.505949 0.944524
vt 0.505949 0.055476
vt 0.456558 0.055476
vt 0.456558 0.944524
vt 0.000000 0.000000
vt 1.000000 0.000000
vt 1.000000 1.000000
vt 0.000000 1.000000
vt 0.079640 0.545577
vt 0.977142 0.545577
vt 0.977142 0.505688
vt 0.079640 0.505688
vt 0.545463 0.055476
vt 0.545463 0.944524
vt 0.079640 0.455826
vt 0.977142 0.455826
vt 0.050354 0.050354
vt 0.050354 0.949646
vt 0.949646 0.949646
vt 0.949646 0.050354
s 0
f 26/1/1 25/2/1 29/3/1 30/4/1
f 3/5/2 4/6/2 8/7/2 7/8/2
f 28/2/3 27/1/3 31/4/3 32/3/3
f 5/5/4 6/6/4 2/7/4 1/8/4
f 3/9/5 7/10/5 12/11/5 9/12/5
f 8/10/6 4/9/6 10/12/6 11/11/6
f 23/13/3 24/14/3 27/1/3 28/2/3
f 11/11/6 10/12/6 14/15/6 15/16/6
f 6/5/1 5/6/1 20/7/1 19/8/1
f 2/5/5 6/6/5 19/7/5 18/8/5
f 17/17/7 18/18/7 14/8/7 13/5/7
f 19/19/8 20/20/8 16/6/8 15/7/8
f 20/20/9 17/17/9 13/5/9 16/6/9
f 18/18/10 19/19/10 15/7/10 14/8/10
f 5/5/6 1/6/6 17/7/6 20/8/6
f 1/5/3 2/6/3 18/7/3 17/8/3
f 25/2/1 26/1/1 22/14/1 21/13/1
f 9/12/5 12/11/5 16/16/5 13/15/5
