# Blender 4.0.2
# www.blender.org
o Icosphere
v 0.000000 -1.000000 0.000000
v 0.723600 -0.447215 0.525720
v -0.276385 -0.447215 0.850640
v -0.894425 -0.447215 0.000000
v -0.276385 -0.447215 -0.850640
v 0.723600 -0.447215 -0.525720
v 0.276385 0.447215 0.850640
v -0.723600 0.447215 0.525720
v -0.723600 0.447215 -0.525720
v 0.276385 0.447215 -0.850640
v 0.894425 0.447215 -0.000000
v 0.000000 1.000000 -0.000000
vn 0.1876 -0.7947 0.5774
vn 0.6071 -0.7947 -0.0000
vn -0.4911 -0.7947 0.3568
vn -0.4911 -0.7947 -0.3568
vn 0.1876 -0.7947 -0.5774
vn 0.9822 -0.1876 -0.0000
vn 0.3035 -0.1876 0.9342
vn -0.7946 -0.1876 0.5774
vn -0.7946 -0.1876 -0.5774
vn 0.3035 -0.1876 -0.9342
vn 0.7946 0.1876 0.5774
vn -0.3035 0.1876 0.9342
vn -0.9822 0.1876 -0.0000
vn -0.3035 0.1876 -0.9342
vn 0.7946 0.1876 -0.5774
vn 0.4911 0.7947 0.3568
vn -0.1876 0.7947 0.5774
vn -0.6071 0.7947 -0.0000
vn -0.1876 0.7947 -0.5774
vn 0.4911 0.7947 -0.3568
vt 0.645665 0.175600
vt 0.620267 0.437462
vt 0.349832 0.264077
vt 0.916101 0.348985
vt 0.890702 0.610847
vt 0.396646 0.039175
vt 0.167913 0.169165
vt 0.436518 0.345371
vt 0.665251 0.215382
vt 0.705122 0.521578
vt 0.933856 0.391588
vt 0.973728 0.697783
vt 0.594869 0.699322
vt 0.324434 0.525937
vt 0.207784 0.475360
vt 0.476389 0.651565
vt 0.744995 0.827771
vt 0.053998 0.352551
vt 0.865304 0.872707
vt 0.299037 0.787799
vt 0.028601 0.614414
vt 0.247656 0.781555
vt 0.516260 0.957761
vt 0.569471 0.961184
s 0
f 1/1/1 2/2/1 3/3/1
f 2/2/2 1/4/2 6/5/2
f 1/6/3 3/7/3 4/8/3
f 1/9/4 4/8/4 5/10/4
f 1/11/5 5/10/5 6/12/5
f 2/2/6 6/5/6 11/13/6
f 3/3/7 2/2/7 7/14/7
f 4/8/8 3/7/8 8/15/8
f 5/10/9 4/8/9 9/16/9
f 6/12/10 5/10/10 10/17/10
f 2/2/11 11/13/11 7/14/11
f 3/3/12 7/14/12 8/18/12
f 4/8/13 8/15/13 9/16/13
f 5/10/14 9/16/14 10/17/14
f 6/5/15 10/19/15 11/13/15
f 7/14/16 11/13/16 12/20/16
f 8/18/17 7/14/17 12/21/17
f 9/16/18 8/15/18 12/22/18
f 10/17/19 9/16/19 12/23/19
f 11/13/20 10/19/20 12/24/20
